<svg width="48" height="48" viewBox="0 0 48 48" fill="none" xmlns="http://www.w3.org/2000/svg">
<path fill-rule="evenodd" clip-rule="evenodd" d="M5 38C3.34314 38 2 36.6568 2 35V13C2 11.3431 3.34314 10 5 10H16C26 10 26 23 20 23C26 23 28 38 16 38H5ZM9 22C8.44772 22 8 21.5522 8 21V15C8 14.4477 8.44772 14 9 14H14C14 14 18 14 18 18C18 22 14 22 14 22H9ZM9 26C8.44772 26 8 26.4478 8 27V33C8 33.5522 8.44772 34 9 34H16C16 34 19 34 19 30C19 26 16 26 16 26H9Z" fill="white"/>
<path fill-rule="evenodd" clip-rule="evenodd" d="M42.9983 28.0068C44.6561 28.0068 46.0427 26.6398 45.7047 25.017C43.2133 13.0577 25.8259 14.1618 26.0003 28.0068C26.1333 38.5524 40.8691 41.9342 45.2079 32.3796C45.8973 30.8616 44.3497 29.9994 43.0747 29.9994C41.9415 29.9994 41.0629 31.0446 40.3389 31.9164C38.2547 34.4264 31.9259 34.2442 31.0901 29.0284C31.0013 28.475 31.4611 28.0068 32.0215 28.0068H42.9983ZM31.6371 23.9994C31.3423 23.9994 31.1519 23.6906 31.3093 23.4414C33.4285 20.0848 38.5231 20.121 40.6799 23.4378C40.8417 23.6868 40.6517 23.9994 40.3547 23.9994H31.6371Z" fill="white"/>
<path d="M32 12C30.8954 12 30 12.8954 30 14C30 15.1046 30.8954 16 32 16H40C41.1046 16 42 15.1046 42 14C42 12.8954 41.1046 12 40 12H32Z" fill="white"/>
</svg>
