<svg width="39" height="52" viewBox="0 0 39 52" fill="none" xmlns="http://www.w3.org/2000/svg">
<path d="M2 33.2002C2 37.6558 3.80622 41.9292 7.02112 45.0797C10.236 48.2305 14.5963 50 19.1429 50C23.6894 50 28.0498 48.2305 31.2648 45.0797C34.4796 41.9292 36.2857 37.6558 36.2857 33.2002V18.8001C36.2857 14.3444 34.4796 10.0714 31.2648 6.92072C28.0498 3.77011 23.6894 2 19.1429 2C14.5963 2 10.236 3.77011 7.02112 6.92072C3.80622 10.0714 2 14.3444 2 18.8001V33.2002Z" stroke="#00C3D0" stroke-width="4" stroke-linecap="round" stroke-linejoin="round"/>
<path d="M19.1436 14.2998V33.4999" stroke="#00C3D0" stroke-width="3" stroke-linecap="round" stroke-linejoin="round"/>
<path d="M26.4898 26.001L19.1428 35.001L11.7959 26.001" stroke="#00C3D0" stroke-width="3" stroke-linecap="round" stroke-linejoin="round"/>
</svg>
