<svg width="48" height="48" viewBox="0 0 48 48" fill="none" xmlns="http://www.w3.org/2000/svg">
<path fill-rule="evenodd" clip-rule="evenodd" d="M22.3998 6.56035H17.6798C15.073 6.56035 12.9598 8.67357 12.9598 11.2804C12.9598 13.8871 15.073 16.0004 17.6798 16.0004H22.3998V6.56035ZM22.3998 3.36035H25.5998H30.3198C34.694 3.36035 38.2396 6.90624 38.2396 11.2804C38.2396 13.8616 37.005 16.1545 35.0937 17.6004C37.005 19.0463 38.2396 21.3391 38.2396 23.9204C38.2396 28.2945 34.694 31.8404 30.3198 31.8404C28.5512 31.8404 26.9179 31.2607 25.5998 30.2809V31.8404V36.5604C25.5998 40.9345 22.0538 44.4804 17.6798 44.4804C13.3057 44.4804 9.75977 40.9345 9.75977 36.5604C9.75977 33.9789 10.9946 31.6863 12.9058 30.2404C10.9946 28.7944 9.75977 26.5016 9.75977 23.9204C9.75977 21.3391 10.9946 19.0463 12.9058 17.6004C10.9946 16.1545 9.75977 13.8616 9.75977 11.2804C9.75977 6.90624 13.3057 3.36035 17.6798 3.36035H22.3998ZM25.5998 6.56035V16.0004H30.3198C32.9266 16.0004 35.0396 13.8871 35.0396 11.2804C35.0396 8.67357 32.9266 6.56035 30.3198 6.56035H25.5998ZM17.6798 28.6403H22.3998V23.9325V23.9204V23.9082V19.2004H17.6798C15.073 19.2004 12.9598 21.3136 12.9598 23.9204C12.9598 26.5209 15.0629 28.6303 17.661 28.6404L17.6798 28.6403ZM12.9598 36.5604C12.9598 33.9597 15.0629 31.8505 17.661 31.8404L17.6798 31.8404H22.3998V36.5604C22.3998 39.1671 20.2866 41.2804 17.6798 41.2804C15.073 41.2804 12.9598 39.1671 12.9598 36.5604ZM25.5998 23.911C25.6049 21.3085 27.7161 19.2004 30.3198 19.2004C32.9266 19.2004 35.0396 21.3136 35.0396 23.9204C35.0396 26.5272 32.9266 28.6404 30.3198 28.6404C27.7161 28.6404 25.6049 26.5323 25.5998 23.9298V23.911Z" fill="white"/>
</svg>
