<svg width="48" height="48" viewBox="0 0 48 48" fill="none" xmlns="http://www.w3.org/2000/svg">
<path fill-rule="evenodd" clip-rule="evenodd" d="M24 4C18.568 4 17.888 4.02266 15.7547 4.12C13.6253 4.21734 12.1707 4.556 10.8987 5.05066C9.56534 5.552 8.356 6.33866 7.356 7.35734C6.33896 8.35618 5.55182 9.56466 5.04934 10.8987C4.55734 12.1707 4.21734 13.6267 4.12 15.756C4.024 17.888 4 18.5667 4 24C4 29.4334 4.02266 30.112 4.12 32.2454C4.21734 34.3746 4.556 35.8294 5.05066 37.1014C5.552 38.4346 6.33866 39.644 7.35734 40.644C8.3562 41.661 9.56468 42.4482 10.8987 42.9506C12.1707 43.444 13.6253 43.7826 15.7547 43.88C17.888 43.9774 18.568 44 24 44C29.432 44 30.112 43.9774 32.2454 43.88C34.3746 43.7826 35.8294 43.444 37.1014 42.9494C38.4346 42.448 39.644 41.6614 40.644 40.6426C41.661 39.6438 42.4482 38.4354 42.9506 37.1014C43.444 35.8294 43.7826 34.3746 43.88 32.2454C43.9774 30.112 44 29.432 44 24C44 18.568 43.9774 17.888 43.88 15.7547C43.7826 13.6253 43.444 12.1707 42.9494 10.8987C42.4472 9.56408 41.66 8.3551 40.6426 7.356C39.6438 6.33896 38.4354 5.55182 37.1014 5.04934C35.8294 4.55734 34.3734 4.21734 32.244 4.12C30.112 4.024 29.4334 4 24 4ZM24 7.604C29.34 7.604 29.9734 7.624 32.0826 7.72C34.032 7.80934 35.0906 8.13334 35.796 8.40934C36.7294 8.77066 37.396 9.20534 38.096 9.904C38.796 10.604 39.2294 11.2707 39.5906 12.204C39.8654 12.9093 40.1906 13.968 40.28 15.9173C40.376 18.0267 40.396 18.66 40.396 24C40.396 29.34 40.376 29.9734 40.28 32.0826C40.1906 34.032 39.8666 35.0906 39.5906 35.796C39.2706 36.6648 38.7598 37.4506 38.096 38.096C37.4508 38.76 36.6648 39.2708 35.796 39.5906C35.0906 39.8654 34.032 40.1906 32.0826 40.28C29.9734 40.376 29.3414 40.396 24 40.396C18.6587 40.396 18.0267 40.376 15.9173 40.28C13.968 40.1906 12.9093 39.8666 12.204 39.5906C11.3353 39.2706 10.5493 38.7598 9.904 38.096C9.24024 37.4506 8.7295 36.6646 8.40934 35.796C8.13466 35.0906 7.80934 34.032 7.72 32.0826C7.624 29.9734 7.604 29.34 7.604 24C7.604 18.66 7.624 18.0267 7.72 15.9173C7.80934 13.968 8.13334 12.9093 8.40934 12.204C8.77066 11.2707 9.20534 10.604 9.904 9.904C10.5493 9.24006 11.3352 8.7293 12.204 8.40934C12.9093 8.13466 13.968 7.80934 15.9173 7.72C18.0267 7.624 18.66 7.604 24 7.604Z" fill="white"/>
<path fill-rule="evenodd" clip-rule="evenodd" d="M23.9997 30.6736C23.1233 30.6736 22.2557 30.501 21.4459 30.1656C20.6363 29.8302 19.9006 29.3386 19.281 28.719C18.6613 28.0992 18.1697 27.3636 17.8344 26.554C17.499 25.7444 17.3264 24.8766 17.3264 24.0002C17.3264 23.1238 17.499 22.256 17.8344 21.4464C18.1697 20.6368 18.6613 19.9011 19.281 19.2814C19.9006 18.6617 20.6363 18.1702 21.4459 17.8348C22.2557 17.4995 23.1233 17.3268 23.9997 17.3268C25.7697 17.3268 27.4669 18.0299 28.7185 19.2814C29.9699 20.533 30.6731 22.2304 30.6731 24.0002C30.6731 25.77 29.9699 27.4674 28.7185 28.719C27.4669 29.9704 25.7697 30.6736 23.9997 30.6736ZM23.9997 13.7202C21.2733 13.7202 18.6585 14.8032 16.7307 16.7311C14.8028 18.659 13.7197 21.2738 13.7197 24.0002C13.7197 26.7266 14.8028 29.3414 16.7307 31.2692C18.6585 33.1972 21.2733 34.2802 23.9997 34.2802C26.7261 34.2802 29.3409 33.1972 31.2687 31.2692C33.1967 29.3414 34.2797 26.7266 34.2797 24.0002C34.2797 21.2738 33.1967 18.659 31.2687 16.7311C29.3409 14.8032 26.7261 13.7202 23.9997 13.7202ZM37.2703 13.5335C37.2703 14.178 37.0143 14.7961 36.5587 15.2518C36.1029 15.7075 35.4849 15.9635 34.8405 15.9635C34.1959 15.9635 33.5779 15.7075 33.1221 15.2518C32.6665 14.7961 32.4103 14.178 32.4103 13.5335C32.4103 12.889 32.6665 12.271 33.1221 11.8152C33.5779 11.3595 34.1959 11.1035 34.8405 11.1035C35.4849 11.1035 36.1029 11.3595 36.5587 11.8152C37.0143 12.271 37.2703 12.889 37.2703 13.5335Z" fill="white"/>
</svg>
