<svg width="48" height="48" viewBox="0 0 48 48" fill="none" xmlns="http://www.w3.org/2000/svg">
<g clip-path="url(#clip0_2040_114)">
<path d="M34.5 0H13.5C6 0 0 6 0 13.5V34.5C0 42 6 48 13.5 48H34.5C42 48 48 42 48 34.5V13.5C48 6 42 0 34.5 0ZM18 37.5C18 38.4 17.4 39 16.5 39H10.5C9.6 39 9 38.4 9 37.5V19.5C9 18.6 9.6 18 10.5 18H16.5C17.4 18 18 18.6 18 19.5V37.5ZM13.5 16.5C10.95 16.5 9 14.55 9 12C9 9.45 10.95 7.5 13.5 7.5C16.05 7.5 18 9.45 18 12C18 14.55 16.05 16.5 13.5 16.5ZM39 37.5C39 38.4 38.4 39 37.5 39H33C32.1 39 31.5 38.4 31.5 37.5V32.25V30.75V27.75C31.5 26.55 30.45 25.5 29.25 25.5C28.05 25.5 27 26.55 27 27.75V30.75V32.25V37.5C27 38.4 26.4 39 25.5 39H21C20.1 39 19.5 38.4 19.5 37.5V19.5C19.5 18.6 20.1 18 21 18H27C27.45 18 27.75 18.15 28.05 18.45C28.95 18.15 29.85 18 30.75 18C35.25 18 39 21.75 39 26.25V37.5Z" fill="white"/>
</g>
<defs>
<clipPath id="clip0_2040_114">
<rect width="48" height="48" fill="white"/>
</clipPath>
</defs>
</svg>
