<svg width="64" height="64" viewBox="0 0 64 64" fill="none" xmlns="http://www.w3.org/2000/svg">
<path d="M34.4844 31.9998L24.1807 42.3055L29.26 47.3848L44.645 31.9998L29.26 16.6168L24.1807 21.696L34.4844 31.9998Z" fill="white"/>
<path d="M0 31.999C0.000875 49.6742 14.3256 63.9981 31.999 64C49.6742 63.9981 63.998 49.6742 64 31.999C63.998 14.3258 49.6742 0.0019989 31.999 0C14.3256 0.0019989 0.000875 14.3258 0 31.999ZM51.0731 12.9269C55.959 17.8156 58.9728 24.5431 58.9738 31.999C58.9728 39.4559 55.959 46.1844 51.0731 51.0732C46.1833 55.959 39.4559 58.9728 31.999 58.9738C24.5431 58.9728 17.8156 55.959 12.9259 51.0732C8.041 46.1844 5.02712 39.4559 5.02625 31.999C5.02712 24.5431 8.041 17.8156 12.9259 12.9269C17.8156 8.041 24.5431 5.02725 31.999 5.02625C39.4559 5.02725 46.1833 8.042 51.0731 12.9269Z" fill="white"/>
</svg>
