<svg width="24" height="24" viewBox="0 0 24 24" fill="none" xmlns="http://www.w3.org/2000/svg">
<path fill-rule="evenodd" clip-rule="evenodd" d="M6.00039 2.40039C6.31865 2.40039 6.62388 2.52682 6.84892 2.75186C7.07396 2.97691 7.20039 3.28213 7.20039 3.60039V4.80039H8.40039C8.71865 4.80039 9.02388 4.92682 9.24892 5.15186C9.47396 5.37691 9.60039 5.68213 9.60039 6.00039C9.60039 6.31865 9.47396 6.62388 9.24892 6.84892C9.02388 7.07396 8.71865 7.20039 8.40039 7.20039H7.20039V8.40039C7.20039 8.71865 7.07396 9.02388 6.84892 9.24892C6.62388 9.47396 6.31865 9.60039 6.00039 9.60039C5.68213 9.60039 5.37691 9.47396 5.15186 9.24892C4.92682 9.02388 4.80039 8.71865 4.80039 8.40039V7.20039H3.60039C3.28213 7.20039 2.97691 7.07396 2.75186 6.84892C2.52682 6.62388 2.40039 6.31865 2.40039 6.00039C2.40039 5.68213 2.52682 5.37691 2.75186 5.15186C2.97691 4.92682 3.28213 4.80039 3.60039 4.80039H4.80039V3.60039C4.80039 3.28213 4.92682 2.97691 5.15186 2.75186C5.37691 2.52682 5.68213 2.40039 6.00039 2.40039ZM6.00039 14.4004C6.31865 14.4004 6.62388 14.5268 6.84892 14.7519C7.07396 14.9769 7.20039 15.2821 7.20039 15.6004V16.8004H8.40039C8.71865 16.8004 9.02388 16.9268 9.24892 17.1519C9.47396 17.3769 9.60039 17.6821 9.60039 18.0004C9.60039 18.3187 9.47396 18.6239 9.24892 18.8489C9.02388 19.074 8.71865 19.2004 8.40039 19.2004H7.20039V20.4004C7.20039 20.7187 7.07396 21.0239 6.84892 21.2489C6.62388 21.474 6.31865 21.6004 6.00039 21.6004C5.68213 21.6004 5.37691 21.474 5.15186 21.2489C4.92682 21.0239 4.80039 20.7187 4.80039 20.4004V19.2004H3.60039C3.28213 19.2004 2.97691 19.074 2.75186 18.8489C2.52682 18.6239 2.40039 18.3187 2.40039 18.0004C2.40039 17.6821 2.52682 17.3769 2.75186 17.1519C2.97691 16.9268 3.28213 16.8004 3.60039 16.8004H4.80039V15.6004C4.80039 15.2821 4.92682 14.9769 5.15186 14.7519C5.37691 14.5268 5.68213 14.4004 6.00039 14.4004ZM14.4004 2.40039C14.6652 2.40031 14.9226 2.48783 15.1325 2.64931C15.3424 2.8108 15.493 3.03719 15.5608 3.29319L16.9756 8.64039L21.0004 10.9612C21.1828 11.0665 21.3343 11.218 21.4396 11.4004C21.5449 11.5828 21.6003 11.7898 21.6003 12.0004C21.6003 12.211 21.5449 12.4179 21.4396 12.6004C21.3343 12.7828 21.1828 12.9343 21.0004 13.0396L16.9756 15.3616L15.5596 20.7076C15.4917 20.9633 15.3411 21.1895 15.1314 21.3508C14.9216 21.5121 14.6644 21.5996 14.3998 21.5996C14.1352 21.5996 13.878 21.5121 13.6682 21.3508C13.4585 21.1895 13.3079 20.9633 13.24 20.7076L11.8252 15.3604L7.80039 13.0396C7.61798 12.9343 7.46651 12.7828 7.3612 12.6004C7.25589 12.4179 7.20044 12.211 7.20044 12.0004C7.20044 11.7898 7.25589 11.5828 7.3612 11.4004C7.46651 11.218 7.61798 11.0665 7.80039 10.9612L11.8252 8.63919L13.2412 3.29319C13.3089 3.03739 13.4593 2.81115 13.669 2.64968C13.8786 2.48821 14.1358 2.40057 14.4004 2.40039V2.40039Z" fill="white"/>
</svg>
