<svg width="966" height="689" viewBox="0 0 966 689" fill="none" xmlns="http://www.w3.org/2000/svg">
<path d="M0 0H154.248V71.1914H92.5049V138.647H150.293V206.323H92.5049V284.546H160.4V355.737H0V0ZM178.207 0H243.686C287.338 0 316.854 1.68457 332.235 5.05371C347.763 8.42285 360.36 17.0654 370.028 30.9814C379.843 44.751 384.75 66.7969 384.75 97.1191C384.75 124.805 381.308 143.408 374.423 152.93C367.538 162.451 353.988 168.164 333.773 170.068C352.084 174.609 364.389 180.688 370.688 188.306C376.986 195.923 380.868 202.954 382.333 209.399C383.944 215.698 384.75 233.203 384.75 261.914V355.737H298.837V237.524C298.837 218.481 297.299 206.689 294.223 202.148C291.293 197.607 283.456 195.337 270.712 195.337V355.737H178.207V0ZM270.712 60.8643V139.966C281.112 139.966 288.363 138.574 292.465 135.791C296.713 132.861 298.837 123.56 298.837 107.886V88.3301C298.837 77.0508 296.786 69.6533 292.685 66.1377C288.729 62.6221 281.405 60.8643 270.712 60.8643ZM631.512 0L584.49 355.737H444.085L390.691 0H488.25C499.529 97.998 507.586 180.835 512.42 248.511C517.254 180.103 522.308 119.312 527.581 66.1377L533.953 0H631.512ZM730.837 0V355.737H638.332V0H730.837ZM965.514 0V355.737H884.435L836.314 194.019V355.737H758.971V0H836.314L888.17 160.181V0H965.514ZM183.586 325V562.744C183.586 598.34 183.22 621.265 182.487 631.519C181.755 641.626 178.386 650.781 172.38 658.984C166.521 667.188 158.464 672.9 148.21 676.123C138.103 679.199 122.795 680.737 102.287 680.737H55.9248V618.555C61.4912 618.994 65.5195 619.214 68.0098 619.214C74.6016 619.214 79.8018 617.603 83.6104 614.38C87.4189 611.157 89.6162 607.202 90.2021 602.515C90.7881 597.827 91.0811 588.745 91.0811 575.269V325H183.586ZM421.778 533.301C421.778 569.043 420.899 594.385 419.142 609.326C417.53 624.121 412.257 637.671 403.321 649.976C394.532 662.28 382.594 671.729 367.506 678.32C352.418 684.912 334.84 688.208 314.771 688.208C295.729 688.208 278.59 685.132 263.355 678.979C248.268 672.681 236.109 663.306 226.881 650.854C217.652 638.403 212.159 624.854 210.401 610.205C208.644 595.557 207.765 569.922 207.765 533.301V472.437C207.765 436.694 208.57 411.426 210.182 396.631C211.939 381.689 217.213 368.066 226.002 355.762C234.938 343.457 246.949 334.009 262.037 327.417C277.125 320.825 294.703 317.529 314.771 317.529C333.814 317.529 350.88 320.679 365.968 326.978C381.202 333.13 393.434 342.432 402.662 354.883C411.891 367.334 417.384 380.884 419.142 395.532C420.899 410.181 421.778 435.815 421.778 472.437V533.301ZM329.273 416.406C329.273 399.854 328.321 389.307 326.417 384.766C324.659 380.078 320.924 377.734 315.211 377.734C310.377 377.734 306.642 379.639 304.005 383.447C301.515 387.109 300.27 398.096 300.27 416.406V582.52C300.27 603.174 301.075 615.918 302.687 620.752C304.444 625.586 308.399 628.003 314.552 628.003C320.851 628.003 324.879 625.22 326.637 619.653C328.395 614.087 329.273 600.83 329.273 579.883V416.406ZM660.19 325V680.737H567.686V531.323H540V680.737H447.495V325H540V452.222H567.686V325H660.19ZM895.087 325V680.737H814.008L765.888 519.019V680.737H688.544V325H765.888L817.743 485.181V325H895.087Z" fill="url(#paint0_linear_2040_84)"/>
<defs>
<linearGradient id="paint0_linear_2040_84" x1="905.477" y1="700.237" x2="12.4766" y2="13.7373" gradientUnits="userSpaceOnUse">
<stop stop-color="#00C3D0"/>
<stop offset="0.5" stop-color="#00C0E8"/>
<stop offset="1" stop-color="#0088FF"/>
</linearGradient>
</defs>
</svg>
