<svg width="124" height="124" viewBox="0 0 124 124" fill="none" xmlns="http://www.w3.org/2000/svg">
<path d="M105.632 65.4833C105.571 65.1681 105.505 64.8534 105.43 64.5397L99.5739 39.708C100.714 40.1277 101.945 40.3572 103.228 40.3572C104.592 40.3572 105.698 39.2513 105.698 37.887V21.6186C105.698 20.2543 104.592 19.1484 103.228 19.1484C100.19 19.1484 97.4479 20.4346 95.5128 22.489L95.1739 21.0517C94.9108 19.9364 93.9154 19.1484 92.7697 19.1484H82.8924C82.163 19.1484 81.4709 19.4708 81.0018 20.029C80.5325 20.5873 80.3339 21.3246 80.4591 22.0429L81.1705 26.1206H72.1437C70.7797 26.1206 69.6736 27.2265 69.6736 28.5907C69.6736 29.955 70.7797 31.0609 72.1437 31.0609H82.0321L85.7783 52.5373C86.3803 56.3705 85.9524 60.3061 84.5412 63.9202C81.2404 72.3742 73.2434 77.8534 64.1679 77.8791L62.422 77.884C54.9257 76.8859 54.9262 73.008 54.9262 71.542C54.9262 66.8218 58.7652 62.8946 63.4842 62.7879C64.8262 62.7575 65.8982 61.6608 65.8982 60.3182V53.6356V42.0351C65.8982 40.6709 64.7921 39.565 63.4281 39.565H25.5912C24.227 39.565 23.1211 40.6709 23.1211 42.0351V51.2704C10.1779 52.4358 0 63.3432 0 76.584V83.8731C0 85.2374 1.10587 86.3432 2.47012 86.3432H4.32766C4.3163 86.6038 4.30765 86.8654 4.30765 87.129C4.30765 96.901 12.2577 104.851 22.0298 104.851C30.0876 104.851 36.9017 99.4438 39.046 92.0685H86.0663C88.2109 99.4435 95.0249 104.851 103.082 104.851C112.049 104.851 119.476 98.1561 120.641 89.5038C123.027 90.3853 124 88.0076 124 86.1125C124 75.4717 115.957 66.6796 105.632 65.4833ZM105.467 74.5738C109.702 75.3764 113.205 78.2721 114.851 82.143C111.194 81.217 107.276 80.737 103.227 80.737C103.16 80.737 103.093 80.7388 103.026 80.739C104.155 78.8066 104.972 76.7256 105.467 74.5738ZM100.758 24.6561V34.8495C98.8685 33.9304 97.5635 31.9911 97.5635 29.7529C97.5637 27.5147 98.8685 25.5752 100.758 24.6561ZM28.0614 44.5053H60.9577V51.1654H28.0614V44.5053ZM22.0298 99.9111C14.9818 99.9111 9.2479 94.1772 9.2479 87.1292C9.2479 86.8652 9.25852 86.6036 9.27433 86.3435H34.7848C34.8006 86.6036 34.8112 86.8652 34.8112 87.1292C34.8115 94.1772 29.0776 99.9111 22.0298 99.9111ZM86.6406 87.1282H40.1724V86.5156C40.1724 85.5661 39.9073 84.6791 39.4546 83.9163C38.5628 82.4147 36.9294 81.403 35.06 81.403H4.94025V76.584C4.94025 65.2921 14.1269 56.1054 25.4188 56.1054H25.5912H60.9577V58.1159C58.2883 58.6531 55.8394 59.9756 53.8961 61.9599C51.3744 64.5345 49.9854 67.9373 49.9854 71.542C49.9854 75.1842 51.5406 81.4907 61.9564 82.8055C62.0614 82.8186 62.1681 82.8233 62.2728 82.825L64.1817 82.8196C69.6004 82.804 74.8275 81.1772 79.2974 78.1145C83.7674 75.0518 87.1719 70.7649 89.1428 65.7174C90.8744 61.2826 91.3973 56.4525 90.6548 51.7494C90.6526 51.7363 90.6504 51.7232 90.6484 51.7101L85.8304 24.0892H90.8141L100.584 65.5144C102.493 73.8676 96.6397 87.1282 86.6406 87.1282ZM103.082 99.9111C97.5556 99.9111 92.8377 96.3843 91.0587 91.4633C94.3763 90.5363 97.3528 88.5797 99.525 85.8354C100.748 85.7324 101.985 85.6778 103.228 85.6778C107.641 85.6778 111.98 86.3418 115.853 87.5778C115.615 94.4183 109.98 99.9111 103.082 99.9111Z" fill="#DBDBDB"/>
<path d="M24.4989 59.5293C23.1053 59.5293 21.7208 59.7079 20.3839 60.0596C19.0647 60.4069 18.2767 61.7578 18.624 63.0771C18.9157 64.1857 19.9161 64.9191 21.0111 64.9191C21.2193 64.9191 21.431 64.8927 21.6417 64.8371C22.5683 64.5931 23.5299 64.4695 24.4989 64.4695C25.8632 64.4695 26.969 63.3637 26.969 61.9994C26.969 60.6352 25.8632 59.5293 24.4989 59.5293Z" fill="#DBDBDB"/>
<path d="M15.8661 64.7918C14.8413 63.8917 13.2807 63.9929 12.3801 65.018C9.7973 67.959 8.375 71.7363 8.375 75.6539C8.375 77.0182 9.48087 78.124 10.8451 78.124C12.2094 78.124 13.3152 77.0182 13.3152 75.6539C13.3152 72.9365 14.3016 70.317 16.0922 68.2779C16.9925 67.253 16.8912 65.6924 15.8661 64.7918Z" fill="#DBDBDB"/>
</svg>
