<svg width="124" height="123" viewBox="0 0 124 123" fill="none" xmlns="http://www.w3.org/2000/svg">
<path d="M93.5833 58.2347C92.3443 58.584 91.6352 59.8266 92.0002 61.009C92.3683 62.1948 93.6659 62.8695 94.905 62.5217C96.144 62.1739 96.8531 60.9298 96.485 59.7474C96.1198 58.5634 94.819 57.8872 93.5833 58.2347Z" fill="#DBDBDB"/>
<path d="M83.7223 60.3634C82.4486 60.57 81.5915 61.7213 81.8051 62.9378C82.0185 64.1546 83.2267 64.9756 84.5002 64.7707C85.7738 64.5641 86.6309 63.4111 86.4173 62.196C86.2003 60.9778 84.9957 60.1587 83.7223 60.3634Z" fill="#DBDBDB"/>
<path d="M102.935 54.7615C101.696 55.1126 100.987 56.3551 101.352 57.5391C101.72 58.7215 103.021 59.3977 104.257 59.0484C105.496 58.7007 106.205 57.4582 105.837 56.2742C105.472 55.0901 104.171 54.4156 102.935 54.7615Z" fill="#DBDBDB"/>
<path d="M124 26.8627C124.003 24.8097 123.49 22.808 122.561 20.941C121.753 19.3043 120.627 17.7657 119.25 16.3234C116.834 13.7969 113.643 11.5548 109.826 9.57391C104.102 6.60857 96.96 4.22859 88.8368 2.5747C80.7138 0.920797 71.6168 0 62 0C53.6259 0 45.6439 0.700406 38.3608 1.97044C27.4289 3.8842 18.0737 7.05759 11.2726 11.205C7.87182 13.284 5.0978 15.616 3.12543 18.2285C2.13755 19.5382 1.35988 20.9185 0.822711 22.3658C0.285781 23.8116 0 25.3258 0 26.8627C0 27.0642 0.00678125 27.2655 0.0171953 27.465L0.00339063 27.4583C0.00339063 28.8453 0.116977 30.4873 0.357953 32.3562C0.777906 35.6226 1.59698 39.5809 2.92902 43.9418C4.93215 50.4782 8.09875 57.9162 12.8694 65.1787C17.4334 72.128 23.4844 78.9156 31.3732 84.5433V92.7472C31.3732 93.5817 31.8106 94.3546 32.5401 94.812C32.7157 94.9205 35.1835 96.4386 40.0644 97.9254C44.9415 99.4158 52.2246 100.87 61.9998 100.87C71.7749 100.87 79.058 99.4156 83.9388 97.9254C88.8162 96.4386 91.2875 94.9208 91.4594 94.812C92.1894 94.3543 92.6263 93.5817 92.6263 92.7472V84.5481C98.557 80.3198 103.444 75.4356 107.44 70.3208C113.801 62.1875 117.921 53.4861 120.468 45.833C121.742 42.0038 122.62 38.4361 123.18 35.3177C123.745 32.1976 123.996 29.5352 123.996 27.458L123.986 27.4597C123.997 27.2621 124 27.0623 124 26.8627ZM87.4602 91.2911C86.3796 91.8072 84.5552 92.58 81.9495 93.3478C77.5543 94.6471 70.9525 95.9343 62 95.9343C52.7618 95.9343 46.026 94.5628 41.634 93.224C39.4412 92.5546 37.8307 91.892 36.7946 91.41C36.7018 91.3686 36.6224 91.3306 36.54 91.2914V85.1543C40.8146 86.5639 49.2132 88.6065 62 88.605C74.787 88.6065 83.1854 86.5639 87.4602 85.1543V91.2911ZM116.111 42.5565C114.228 48.7158 111.23 55.746 106.756 62.5541C102.281 69.364 96.3335 75.9502 88.5375 81.2905C88.4445 81.3576 88.3585 81.428 88.2759 81.5002C85.5016 82.6085 76.9207 85.4636 62 85.4653C52.631 85.4653 45.7642 84.3365 41.2622 83.2246C39.0113 82.6705 37.3487 82.1163 36.2647 81.7102C36.0649 81.6344 35.8895 81.5673 35.7244 81.5C35.6418 81.4278 35.5558 81.3573 35.4628 81.2902C29.5219 77.2217 24.6586 72.4305 20.6969 67.364C14.7594 59.7728 10.8563 51.5569 8.45719 44.3373C7.90306 42.6662 7.42789 41.0503 7.02877 39.5083C9.05612 41.1929 11.455 42.742 14.174 44.1549C19.8981 47.1219 27.04 49.4985 35.1632 51.1541C43.2828 52.808 52.3832 53.7286 62 53.7286C70.3744 53.7286 78.3564 53.0299 85.6394 51.7581C96.5711 49.8444 105.926 46.6707 112.731 42.5199C114.283 41.5698 115.701 40.5666 116.979 39.5047C116.72 40.493 116.431 41.5136 116.111 42.5565ZM27.4909 29.2153C30.3064 30.8707 34.3645 32.7554 39.3862 33.6725L39.4274 33.4609C39.7028 34.2921 40.0024 35.1283 40.3431 35.9719C40.7769 37.044 41.2687 38.1247 41.8195 39.1985C35.2661 38.1281 29.6418 35.7498 25.5254 33.5158C23.1916 32.2526 21.3469 31.0358 20.0904 30.141C19.9219 30.0204 19.7635 29.9068 19.6152 29.7985C20.5411 28.8295 21.7494 27.8625 23.2328 26.9434C23.3912 26.8453 23.5564 26.7491 23.7181 26.6508C24.4447 27.2294 25.7252 28.1775 27.4909 29.2153ZM26.8712 25.0177C29.7866 23.684 33.2906 22.5016 37.2349 21.5484C37.369 24.0935 37.727 27.0812 38.5119 30.2703C34.6674 29.3737 31.4902 27.8731 29.2151 26.5358C28.272 25.9833 27.4839 25.4568 26.8712 25.0177ZM83.0199 36.5209C79.6296 38.4657 77.5402 40.362 76.556 41.369C75.8192 40.7975 75.1205 40.2055 74.4528 39.5996C73.4615 38.6977 72.5424 37.7616 71.6923 36.8031C72.6664 36.0012 74.9486 34.3025 78.6555 32.5609C83.4881 30.2892 90.7435 27.954 100.698 27.4495C101.455 27.9642 102.143 28.4822 102.735 29.0121C103.293 29.5096 103.768 30.0121 104.171 30.5147C94.5127 31.208 87.584 33.9 83.0199 36.5209ZM105.702 33.5747C105.771 33.9155 105.816 34.2562 105.816 34.5987C105.816 35.5229 105.575 36.4315 105.069 37.3642C104.191 38.9958 102.453 40.6926 99.9237 42.2586C97.9341 43.4942 95.4662 44.6473 92.6232 45.6678C91.0811 46.0602 89.4946 46.4232 87.8559 46.7572C87.5634 46.8175 87.2572 46.8689 86.9611 46.9277C84.0664 45.9483 81.5055 44.6921 79.2338 43.2481C80.1701 42.3341 82.0185 40.7405 84.9233 39.099C89.2878 36.6398 96.0271 34.0755 105.702 33.5747ZM76.8243 29.9157C73.1895 31.6624 70.8386 33.3647 69.672 34.3112C68.2058 32.3543 66.9978 30.363 66.0099 28.4563L66.1373 28.5733L66.1511 28.5578C66.3301 28.3892 68.0029 26.8593 71.5446 25.2965C74.9488 23.7993 80.0841 22.2711 87.3193 21.903C89.5084 22.4777 91.5563 23.1197 93.4183 23.8235C94.1792 24.111 94.8985 24.4072 95.5936 24.7099C87.4016 25.6668 81.1854 27.8179 76.8243 29.9157ZM69.6066 22.6927C67.1835 23.8114 65.5727 24.9146 64.6641 25.6237C64.4955 25.233 64.3337 24.8509 64.1821 24.4774C63.2768 22.2265 62.6917 20.2713 62.3371 18.8688C67.7721 18.9013 72.9728 19.299 77.764 19.9926C74.4082 20.7431 71.703 21.724 69.6066 22.6927ZM63.5798 30.8314C65.5866 34.4936 68.3606 38.4054 72.1813 41.882C74.6732 44.1484 77.6194 46.2256 81.065 47.9173C77.6402 48.4026 74.0638 48.7586 70.3744 48.979C66.6776 46.9914 63.6936 44.5974 61.2841 41.9919C57.4013 37.7977 54.9853 33.0513 53.4847 28.7041C52.249 25.1141 51.6433 21.7998 51.3508 19.3094C53.8153 19.0943 56.3553 18.9531 58.9574 18.8945C59.5251 21.3108 60.8436 25.8404 63.5798 30.8314ZM52.3178 34.4662C53.8804 37.7067 55.9836 41.0145 58.8162 44.0742C60.4994 45.895 62.4439 47.6247 64.6742 49.2011C63.7864 49.2186 62.8983 49.2321 61.9998 49.2321C59.2877 49.2321 56.62 49.1493 54.0076 49.0033C51.7015 47.1893 49.7773 45.2205 48.1803 43.1639C45.0481 39.1385 43.1411 34.7793 42.0089 30.6711C41.0106 27.0519 40.6148 23.6307 40.4976 20.8359C42.9001 20.3573 45.4334 19.9582 48.0735 19.6467C48.5145 23.3779 49.6022 28.823 52.3178 34.4662ZM23.901 36.254C28.7782 38.8992 35.6689 41.756 43.8263 42.6475C44.3564 43.453 44.9209 44.2552 45.5371 45.0432C46.4835 46.26 47.5402 47.4494 48.7037 48.6005C45.4235 48.2856 42.2431 47.8638 39.2072 47.3355C35.3972 46.6729 31.807 45.8434 28.4822 44.8815C25.0504 43.477 22.3004 41.8645 20.4246 40.1884C19.3716 39.2487 18.5937 38.2971 18.0875 37.3642C17.5814 36.4315 17.3406 35.5229 17.3406 34.5987C17.3406 33.8757 17.4956 33.1615 17.8054 32.4369C19.1544 33.4129 21.2197 34.7999 23.901 36.254ZM118.31 30.8622C117.732 32.0308 116.885 33.2097 115.774 34.3729C113.825 36.4141 111.051 38.4034 107.582 40.2036C107.324 40.3361 107.055 40.4686 106.79 40.6013C107.255 40.0263 107.657 39.431 107.995 38.8115C108.71 37.495 109.113 36.0666 109.11 34.5987C109.113 33.1339 108.71 31.704 107.995 30.3873C106.731 28.0724 104.556 26.071 101.72 24.3038C98.1644 22.0991 93.5316 20.2612 88.1105 18.8446L88.1071 18.7138C87.9625 18.7189 87.8247 18.7293 87.6837 18.7344C86.7407 18.4917 85.7736 18.2629 84.7823 18.0478C77.9224 16.5608 70.0094 15.7158 61.5798 15.7158C48.7276 15.7192 37.0937 17.669 28.5268 20.8942C24.2449 22.5154 20.7167 24.4481 18.1767 26.7111C16.9066 27.8436 15.881 29.0671 15.1617 30.387C14.4458 31.7036 14.0466 33.1337 14.0466 34.5984C14.0466 36.0663 14.4458 37.4947 15.1617 38.8113C15.3646 39.1811 15.5986 39.5427 15.8466 39.8953C15.1374 39.5168 14.4525 39.1278 13.8054 38.7321C10.7764 36.8854 8.45307 34.8823 6.94206 32.8704C6.18474 31.8653 5.62723 30.862 5.25547 29.8622C4.89073 28.8641 4.70473 27.8743 4.70473 26.8625C4.70473 25.5183 5.0283 24.2018 5.68923 22.8647C6.27096 21.6978 7.11426 20.5189 8.22929 19.3539C10.1741 17.3128 12.9481 15.3249 16.4176 13.525C21.6218 10.8246 28.3749 8.5514 36.1433 6.97306C43.9117 5.38964 52.6993 4.49476 61.9993 4.49476C70.0983 4.49476 77.8049 5.17458 84.792 6.39133C95.2729 8.21912 104.136 11.2857 110.194 14.9946C113.226 16.8429 115.546 18.848 117.057 20.8599C117.814 21.863 118.372 22.8681 118.743 23.8644C119.112 24.8627 119.294 25.8538 119.294 26.8625C119.295 28.2085 118.971 29.5234 118.31 30.8622Z" fill="#DBDBDB"/>
<path d="M73.6066 61.5594C72.3225 61.6626 71.3622 62.7418 71.4691 63.9707C71.5756 65.201 72.7081 66.1147 73.9919 66.0152C75.2792 65.912 76.236 64.8328 76.1329 63.6025C76.0229 62.3734 74.8938 61.458 73.6066 61.5594Z" fill="#DBDBDB"/>
<path d="M63.3937 62.0138C62.1031 62.0293 61.067 63.0411 61.0842 64.2751C61.098 65.5073 62.1581 66.4969 63.4489 66.4814C64.7395 66.4674 65.7756 65.4574 65.7584 64.2216C65.7446 62.9896 64.6848 62.0017 63.3937 62.0138Z" fill="#DBDBDB"/>
<path d="M33.0329 59.0916C31.7764 58.799 30.5134 59.5338 30.207 60.7317C29.9006 61.931 30.6681 63.1392 31.9246 63.4318C33.1811 63.7244 34.4441 62.9896 34.7504 61.7898C35.0568 60.5922 34.2859 59.3841 33.0329 59.0916Z" fill="#DBDBDB"/>
<path d="M43.0076 60.8655C41.7272 60.6987 40.5499 61.5541 40.3745 62.7776C40.1989 63.9997 41.0938 65.1249 42.3743 65.292C43.6547 65.4605 44.8318 64.6034 45.0073 63.3816C45.1829 62.1598 44.288 61.0326 43.0076 60.8655Z" fill="#DBDBDB"/>
<path d="M53.1683 61.7957C51.8777 61.725 50.7726 62.6647 50.7004 63.897C50.6246 65.1273 51.6091 66.1859 52.8999 66.258C54.1872 66.3285 55.2954 65.3871 55.3678 64.1534C55.4434 62.9229 54.4557 61.8643 53.1683 61.7957Z" fill="#DBDBDB"/>
<path d="M21.9082 55.3566C20.6554 55.0658 19.3921 55.7989 19.086 56.9984C18.7794 58.198 19.5471 59.4043 20.8036 59.7003C22.0564 59.9894 23.3231 59.2561 23.6294 58.0568C23.9322 56.8589 23.1644 55.6506 21.9082 55.3566Z" fill="#DBDBDB"/>
<path d="M14.5215 111.591H109.478V104.604L14.5215 106.757V111.591Z" fill="#DBDBDB"/>
<path d="M14.5215 120.182L109.478 122.335V115.348H14.5215V120.182Z" fill="#DBDBDB"/>
</svg>
