<svg width="550" height="280" viewBox="0 0 550 280" fill="none" xmlns="http://www.w3.org/2000/svg">
<path fill-rule="evenodd" clip-rule="evenodd" d="M43.2283 25.0419C45.8078 27.0883 49.2843 29.9475 53.0741 33.3464C56.7 36.5987 60.6799 40.4044 64.4536 44.5122C71.7045 38.3557 77.2995 31.4123 80.1836 24.7985C76.1944 23.1607 71.9965 22.0657 67.7112 21.5463C59.5789 20.5606 51.1419 21.65 43.2283 25.0419ZM87.1012 28.318C83.5977 36.1141 77.2758 43.783 69.5061 50.3867C71.8363 53.3033 73.9551 56.3041 75.6922 59.3125C77.8084 62.9783 79.6896 67.2315 81.3471 71.6934C90.7101 68.164 100.553 66.4167 109.779 67.5332C109.551 59.8881 107.48 52.1895 103.388 45.1027C99.2847 37.9951 93.6319 32.3399 87.1012 28.318ZM109.377 75.2956C101.441 74.2199 92.5624 75.712 83.8348 79.0363C85.3373 83.8816 86.5959 88.7325 87.6241 93.1382C88.8987 98.6019 89.8432 103.491 90.4694 107.015C90.489 107.127 90.5086 107.237 90.5283 107.347C97.4991 102.175 102.714 95.3691 105.95 87.7777C107.65 83.7901 108.803 79.5886 109.377 75.2956ZM83.4101 111.727C83.267 110.844 83.0769 109.71 82.8387 108.371C82.2306 104.947 81.313 100.198 80.0766 94.8995C79.1239 90.8152 77.995 86.4659 76.6919 82.1786C74.5808 83.2326 72.4971 84.3858 70.4573 85.6274C57.9963 93.2094 48.0252 103.555 43.8184 113.199C56.2319 118.295 70.6557 118.133 83.4101 111.727ZM36.9009 109.68C42.072 98.1736 53.3841 86.9438 66.4283 79.0068C68.9399 77.4785 71.5459 76.0535 74.2186 74.7603C72.6578 70.5102 70.9115 66.5319 68.9807 63.1875C67.4405 60.52 65.5283 57.8163 63.394 55.1504C61.6063 56.4274 59.769 57.6457 57.8951 58.7964C44.6188 66.9473 28.6626 72.2142 14.2208 70.4663C14.4489 78.1099 16.5192 85.8082 20.6104 92.8943C24.7146 100.003 30.3695 105.659 36.9009 109.68ZM14.6215 62.7039C16.4041 49.3598 23.7832 36.903 35.7629 29.0506C36.4056 29.541 37.2207 30.1712 38.1735 30.9247C40.6812 32.9078 44.1324 35.7373 47.8992 39.1158C51.3082 42.1734 54.9139 45.6267 58.2945 49.2662C56.8514 50.2783 55.365 51.2556 53.8403 52.1916C41.1925 59.9568 26.7994 64.3562 14.6215 62.7039ZM34.2283 20.898C45.0529 14.6484 57.118 12.4555 68.6438 13.8527C85.3823 15.8816 101.013 25.4888 110.1 41.2277C119.187 56.9665 119.692 75.3064 113.079 90.8173C108.526 101.497 100.594 110.849 89.7698 117.099C63.2049 132.436 29.2361 123.335 13.8987 96.7693C-1.43873 70.2044 7.66319 36.2354 34.2283 20.898Z" fill="#DBDBDB"/>
<path d="M198.867 230.941C200.307 229.357 200.19 226.906 198.606 225.466C197.023 224.027 194.572 224.144 193.132 225.727L198.867 230.941ZM212.753 211.504L215.516 208.786L215.494 208.764L212.753 211.504ZM213.841 218.135C215.342 219.661 217.795 219.68 219.32 218.179C220.846 216.679 220.866 214.225 219.365 212.7L213.841 218.135ZM132.619 254.388C130.478 254.388 128.744 256.123 128.744 258.263C128.744 260.403 130.478 262.138 132.619 262.138V254.388ZM121.083 237.376C118.943 237.376 117.208 239.111 117.208 241.251C117.208 243.391 118.943 245.126 121.083 245.126V237.376ZM145.327 173.339C146.15 171.363 145.216 169.095 143.24 168.271C141.265 167.448 138.996 168.382 138.173 170.358L145.327 173.339ZM138.173 234.991C138.996 236.966 141.265 237.901 143.24 237.078C145.216 236.254 146.15 233.986 145.327 232.01L138.173 234.991ZM159.833 185.709C157.693 185.709 155.958 187.444 155.958 189.584C155.958 191.724 157.693 193.459 159.833 193.459V185.709ZM205.692 243.4C206.879 245.181 209.285 245.662 211.066 244.475C212.847 243.288 213.328 240.882 212.14 239.101L205.692 243.4ZM165 265.792C138.605 265.792 117.208 244.395 117.208 218.001H109.458C109.458 248.676 134.325 273.542 165 273.542V265.792ZM212.791 218.001C212.791 244.395 191.394 265.792 165 265.792V273.542C195.675 273.542 220.541 248.676 220.541 218.001H212.791ZM165 170.209C191.394 170.209 212.791 191.606 212.791 218.001H220.541C220.541 187.326 195.675 162.459 165 162.459V170.209ZM165 162.459C134.325 162.459 109.458 187.326 109.458 218.001H117.208C117.208 191.606 138.605 170.209 165 170.209V162.459ZM165 221.876H165.473V214.126H165V221.876ZM161.941 215.621L159.718 218.48L165.835 223.238L168.058 220.38L161.941 215.621ZM161.423 164.844L157.879 173.347L165.033 176.328L168.577 167.824L161.423 164.844ZM193.132 225.727L191.628 227.383L197.362 232.596L198.867 230.941L193.132 225.727ZM209.991 214.222L213.841 218.135L219.365 212.7L215.516 208.786L209.991 214.222ZM191.628 227.383C176.799 243.694 154.464 254.388 132.619 254.388V262.138C156.842 262.138 181.201 250.373 197.362 232.596L191.628 227.383ZM157.879 173.347C151.517 188.618 152.946 206.025 161.714 220.054L168.286 215.947C160.848 204.047 159.636 189.281 165.033 176.328L157.879 173.347ZM159.718 218.48C150.445 230.402 136.187 237.376 121.083 237.376V245.126C138.578 245.126 155.094 237.048 165.835 223.238L159.718 218.48ZM138.173 170.358C129.509 191.152 129.509 214.197 138.173 234.991L145.327 232.01C137.457 213.124 137.457 192.225 145.327 173.339L138.173 170.358ZM159.833 193.459C178.654 193.459 196.704 200.936 210.013 214.244L215.494 208.764C200.731 194.002 180.709 185.709 159.833 185.709V193.459ZM165.473 221.876C181.635 221.876 196.727 229.953 205.692 243.4L212.14 239.101C201.738 223.498 184.226 214.126 165.473 214.126V221.876Z" fill="#DBDBDB"/>
<g clip-path="url(#clip0_2198_5407)">
<path d="M366.101 209C365.493 209 365 209.493 365 210.101C365 210.708 365.493 211.2 366.101 211.2C366.708 211.2 367.201 210.708 367.201 210.101C367.201 209.493 366.708 209 366.101 209Z" fill="#DBDBDB" stroke="#DBDBDB" stroke-width="2"/>
<path d="M450.847 261.643C451.207 260.808 451.42 259.828 451.418 258.759C451.42 257.719 451.239 256.746 450.908 255.88C450.62 255.123 450.225 254.448 449.773 253.862C448.979 252.834 448.026 252.067 447.1 251.431C446.403 250.952 445.713 250.548 445.091 250.175C444.155 249.624 443.367 249.128 442.95 248.729C442.742 248.535 442.629 248.378 442.578 248.281C442.559 248.245 442.551 248.221 442.544 248.194L442.503 247.824V247.819C442.486 247.643 442.109 244.011 442.109 238.691C442.109 232.631 442.602 224.372 444.615 216.572C446.059 210.966 446.703 205.762 446.703 200.972C446.705 194.597 445.556 188.953 443.645 184.093C440.778 176.796 436.201 171.269 431.248 167.557C428.771 165.699 426.199 164.296 423.679 163.345C421.158 162.397 418.688 161.901 416.389 161.901C416.22 161.901 416.053 161.908 415.886 161.915C415.501 161.39 414.964 160.715 414.277 159.997C413.551 159.237 412.663 158.431 411.606 157.725C410.547 157.018 409.313 156.412 407.907 156.097C407.612 156.032 407.314 156 407.024 156C406.506 155.998 406.013 156.099 405.565 156.261C404.721 156.571 404.038 157.072 403.438 157.643C402.394 158.654 401.554 159.917 400.799 161.271C399.674 163.299 398.774 165.534 398.135 167.286C397.816 168.167 397.564 168.921 397.39 169.458C395.494 170.387 393.645 171.619 391.85 173.005C388.768 175.386 385.85 178.231 383.276 180.841C381.994 182.145 380.796 183.393 379.725 184.492C378.651 185.583 377.697 186.529 376.928 187.211L376.889 187.247L376.85 187.286C376.85 187.286 376.618 187.516 376.207 187.924C374.763 189.354 371.122 192.954 367.582 196.414C365.812 198.146 364.067 199.842 362.64 201.211C361.929 201.893 361.295 202.496 360.779 202.977C360.266 203.456 359.862 203.821 359.654 203.998C358.641 204.852 357.864 205.817 357.347 206.853C356.829 207.891 356.58 208.996 356.582 210.068C356.582 211.326 356.914 212.526 357.465 213.595C358.295 215.202 359.601 216.537 361.169 217.495C362.742 218.451 364.595 219.039 366.555 219.039C366.91 219.039 367.271 219.015 367.629 218.973C367.716 219.455 367.866 219.917 368.074 220.348C368.567 221.359 369.341 222.213 370.319 222.842C371.296 223.468 372.492 223.863 373.793 223.86C374.942 223.862 376.159 223.546 377.301 222.88C378.951 221.92 380.48 220.778 382.248 219.851C384.022 218.925 386.001 218.189 388.594 217.998C390.341 217.872 392.063 217.645 393.715 217.33C393.67 218.061 393.546 218.76 393.341 219.462C392.898 220.993 392.073 222.546 391.011 224.264C389.426 226.843 387.326 229.763 385.587 233.554C383.847 237.34 382.5 242.005 382.372 247.99V248.041C382.372 248.099 382.364 248.135 382.352 248.174C382.33 248.247 382.28 248.363 382.115 248.549C381.97 248.709 381.745 248.907 381.447 249.127C380.925 249.51 380.194 249.938 379.386 250.422C378.172 251.153 376.759 252.011 375.564 253.327C374.969 253.983 374.434 254.767 374.057 255.684C373.679 256.598 373.469 257.638 373.469 258.759C373.464 260.188 373.846 261.447 374.441 262.436C374.887 263.176 375.433 263.767 375.99 264.226C376.345 264.519 376.701 264.754 377.044 264.957L374.294 269.59V280H450.595V269.59L447.847 264.962C448.367 264.655 448.921 264.254 449.448 263.724C449.986 263.177 450.489 262.485 450.847 261.643ZM388.11 237.731C389.634 233.448 391.865 230.245 393.853 227.105C394.845 225.537 395.779 223.979 396.486 222.291C397.192 220.61 397.657 218.778 397.654 216.78C397.654 216.642 397.647 216.504 397.642 216.368C398.002 216.257 398.358 216.139 398.707 216.018C400.192 215.498 401.539 214.885 402.703 214.16C403.867 213.431 404.861 212.597 405.582 211.528L402.321 209.352C402.05 209.771 401.481 210.313 400.632 210.836C399.367 211.629 397.516 212.379 395.378 212.948C393.232 213.514 390.793 213.915 388.313 214.092C385.101 214.317 382.517 215.282 380.427 216.385C378.334 217.489 376.698 218.713 375.339 219.492C374.746 219.833 374.243 219.942 373.793 219.947C373.454 219.947 373.137 219.877 372.844 219.76C372.409 219.584 372.034 219.279 371.795 218.957C371.548 218.633 371.461 218.311 371.463 218.125C371.465 217.987 371.49 217.907 371.562 217.793L371.412 217.694C371.673 217.539 371.932 217.375 372.182 217.191C372.719 216.799 373.575 216.238 374.528 215.638C375.963 214.735 377.634 213.731 378.941 212.959C379.594 212.57 380.158 212.241 380.557 212.009C380.755 211.892 380.915 211.8 381.021 211.738C381.13 211.675 381.189 211.641 381.189 211.641L379.231 208.249C379.224 208.254 377.528 209.231 375.52 210.436C374.516 211.041 373.435 211.696 372.443 212.323C371.448 212.947 370.551 213.533 369.878 214.021C368.792 214.808 367.682 215.119 366.554 215.125C365.78 215.125 364.999 214.965 364.266 214.677C363.163 214.244 362.176 213.509 361.51 212.669C361.176 212.248 360.917 211.805 360.751 211.365C360.583 210.925 360.499 210.492 360.497 210.068C360.501 209.585 360.603 209.11 360.855 208.602C361.106 208.097 361.518 207.55 362.18 206.991C362.539 206.686 363.037 206.229 363.69 205.622C365.945 203.502 369.915 199.622 373.333 196.261C376.573 193.077 379.304 190.368 379.583 190.095C380.771 189.033 382.125 187.642 383.649 186.076C385.957 183.696 388.633 180.918 391.425 178.448C394.217 175.973 397.137 173.818 399.791 172.661L400.633 172.296L400.887 171.415L400.889 171.408C400.928 171.265 401.871 168.099 403.265 165.082C403.954 163.577 404.77 162.108 405.548 161.141C405.931 160.652 406.306 160.299 406.579 160.112C406.719 160.02 406.826 159.97 406.898 159.943C406.971 159.919 407.005 159.916 407.024 159.916L407.053 159.919H407.058C407.876 160.101 408.682 160.48 409.434 160.981C410.561 161.731 411.544 162.747 412.216 163.57C412.553 163.981 412.814 164.341 412.986 164.591C413.073 164.716 413.135 164.813 413.174 164.876L413.218 164.944L413.223 164.953L413.876 166.042L415.134 165.89C415.53 165.844 415.951 165.817 416.389 165.817C418.69 165.812 421.543 166.507 424.477 167.958C428.887 170.133 433.477 173.985 436.946 179.479C440.41 184.975 442.784 192.112 442.788 200.972C442.788 205.408 442.186 210.281 440.822 215.591C438.688 223.883 438.194 232.418 438.194 238.691C438.194 241.828 438.32 244.393 438.431 246.074H432.889C432.047 242.453 431.706 238.892 431.706 235.376C431.704 229.292 432.72 223.345 433.857 217.563C434.989 211.778 436.247 206.163 436.641 200.689V200.686C436.682 200.091 436.704 199.486 436.704 198.869C436.704 195.988 436.247 192.872 435.286 189.788C433.845 185.167 431.273 180.592 427.329 177.128C425.358 175.398 423.04 173.953 420.384 172.95C417.732 171.945 414.742 171.382 411.439 171.384V175.301C415.255 175.303 418.429 176.155 421.1 177.561C423.105 178.618 424.83 179.992 426.301 181.596C428.508 183.998 430.138 186.913 431.208 189.94C432.282 192.964 432.79 196.097 432.787 198.869C432.787 199.397 432.768 199.91 432.734 200.41V200.408C432.376 205.472 431.164 210.966 430.012 216.808C428.866 222.653 427.789 228.854 427.787 235.377C427.787 238.858 428.101 242.429 428.875 246.075H386.393C386.634 242.833 387.263 240.109 388.11 237.731ZM446.676 276.083H378.21V270.667L381.077 265.838H443.812L446.676 270.667V276.083H446.676ZM447.082 260.426C446.901 260.731 446.667 260.987 446.4 261.21C445.999 261.546 445.522 261.783 445.154 261.926C445.101 261.948 445.055 261.962 445.009 261.979V261.921H379.943V262.004C379.86 261.974 379.773 261.943 379.672 261.904C379.198 261.713 378.576 261.367 378.143 260.883C377.925 260.639 377.746 260.368 377.611 260.034C377.48 259.7 377.388 259.299 377.385 258.759C377.388 258.159 377.485 257.688 377.642 257.269C377.78 256.901 377.969 256.574 378.215 256.253C378.646 255.694 379.263 255.169 380.003 254.661C380.557 254.281 381.172 253.916 381.801 253.541C382.747 252.972 383.726 252.406 384.607 251.593C385.043 251.189 385.459 250.705 385.778 250.103C385.797 250.066 385.809 250.028 385.826 249.991H439.063C439.283 250.436 439.559 250.828 439.858 251.165C440.253 251.603 440.683 251.963 441.126 252.287C441.9 252.851 442.713 253.316 443.492 253.783C444.658 254.477 445.728 255.178 446.417 255.953C446.765 256.34 447.027 256.732 447.208 257.172C447.39 257.615 447.499 258.115 447.501 258.759C447.496 259.524 447.324 260.014 447.082 260.426Z" fill="#DBDBDB" stroke="#DBDBDB" stroke-width="2"/>
</g>
<path d="M325.932 84.5474C321.552 88.7172 316.064 91.5385 310.124 92.6744L258.147 40.7862C259.44 34.8909 262.311 29.4579 266.452 25.0679C285.114 6.40262 309.501 1.84769 329.325 21.6745C349.15 41.5012 344.597 65.8854 325.932 84.5474ZM268.173 97.851C271.108 95.7757 274.374 94.2137 277.831 93.2316C282.973 92.6305 288.183 93.1011 293.133 94.6137L256.31 57.8668C257.91 63.0031 258.353 68.4298 257.61 73.7578C256.705 77.0536 255.249 80.1725 253.304 82.9826C244.442 93.4234 235.68 97.2591 235.68 101.069C235.903 104.776 237.476 108.272 240.102 110.898C242.728 113.524 246.224 115.097 249.931 115.32C253.741 115.32 257.518 106.944 268.173 97.851Z" fill="#DBDBDB"/>
<path d="M488 8.55176C458.528 8.55176 434.552 32.5279 434.552 62C434.552 91.4722 458.528 115.448 488 115.448C517.472 115.448 541.448 91.4722 541.448 62C541.448 32.5279 517.472 8.55176 488 8.55176ZM488 111.762C460.561 111.762 438.238 89.4393 438.238 62C438.238 34.5608 460.561 12.2378 488 12.2378C515.439 12.2378 537.762 34.5608 537.762 62C537.762 89.4393 515.439 111.762 488 111.762Z" fill="#DBDBDB" stroke="#DBDBDB" stroke-width="4.13793"/>
<path d="M481.942 25.2959C464.665 25.2959 450.61 38.9381 450.61 55.7061C450.61 72.4741 464.665 86.1164 481.942 86.1164C499.219 86.1164 513.274 72.4741 513.274 55.7061C513.274 38.9381 499.219 25.2959 481.942 25.2959ZM481.942 82.4303C466.698 82.4303 454.296 70.4413 454.296 55.7061C454.296 40.971 466.698 28.982 481.942 28.982C497.186 28.982 509.588 40.971 509.588 55.7061C509.588 70.4413 497.186 82.4303 481.942 82.4303Z" fill="#DBDBDB" stroke="#DBDBDB" stroke-width="4.13793"/>
<path d="M493 46.4912C493 40.9013 488.453 36.3545 482.863 36.3545H477.334C471.744 36.3545 467.197 40.9013 467.197 46.4912C467.197 49.9193 468.911 52.9493 471.525 54.7849C468.911 56.6206 467.197 59.6506 467.197 63.0786C467.197 68.6686 471.744 73.2154 477.334 73.2154H482.863C488.453 73.2154 493 68.6686 493 63.0786C493 59.6506 491.286 56.6206 488.672 54.7849C491.286 52.9493 493 49.9193 493 46.4912ZM489.314 63.0786C489.314 66.6357 486.42 69.5293 482.863 69.5293H477.334C473.777 69.5293 470.883 66.6357 470.883 63.0786C470.883 59.5216 473.777 56.628 477.334 56.628H482.863C486.42 56.628 489.314 59.5216 489.314 63.0786ZM482.863 52.9419H477.334C473.777 52.9419 470.883 50.0483 470.883 46.4912C470.883 42.9342 473.777 40.0406 477.334 40.0406H482.863C486.42 40.0406 489.314 42.9342 489.314 46.4912C489.314 50.0483 486.42 52.9419 482.863 52.9419Z" fill="#DBDBDB" stroke="#DBDBDB" stroke-width="4.13793"/>
<defs>
<clipPath id="clip0_2198_5407">
<rect width="124" height="124" fill="white" transform="translate(342 156)"/>
</clipPath>
</defs>
</svg>
